<svg height="40px" width="75px" viewBox="30 30 67.0 90.95" xmlns="http://www.w3.org/2000/svg"><g fill="#1e315a" transform="rotate(90 50 100)"><path d="m30.48 78.6-13.08 5.48v.1h13.09v5.26h-29.92v-3.67l13-5.29v-.11h-13v-5.32h29.91z"/><path d="m.55 120.77v-5.31h29.94v3.54l-13.08 5.48v.1h13.07v5.28h-29.9v-3.69l13-5.29v-.1z"/><path d="m17.45 53.18h13v5.26h-29.88v-3.67l13-5.3v-.1h-13v-5.32h29.91v3.55l-13.08 5.48z"/><path d="m15.58 132.41c2.39 0 4.78-.09 7.17 0a16.66 16.66 0 0 1 4.26.77 5.6 5.6 0 0 1 3.95 5.3 14.66 14.66 0 0 1 -.28 4.18c-.58 2.51-2.45 3.8-4.85 4.23a35.51 35.51 0 0 1 -5.45.5c-3.56.07-7.11.09-10.66 0a25.52 25.52 0 0 1 -5.29-.72 5.29 5.29 0 0 1 -4-4 10 10 0 0 1 .12-6c.77-2.26 2.56-3.34 4.77-3.85a39.43 39.43 0 0 1 8.48-.52h1.81zm-.1 9.15v.07h7a10.6 10.6 0 0 0 2.31-.3 1.26 1.26 0 0 0 1.07-1.42 1.33 1.33 0 0 0 -1.11-1.39 10.82 10.82 0 0 0 -2.12-.29q-3.51-.08-7-.06c-2.64 0-5.28 0-7.91.09a6 6 0 0 0 -1.57.3 1.36 1.36 0 0 0 -1 1.43 1.34 1.34 0 0 0 1 1.33 4 4 0 0 0 1.17.24c2.75.01 5.45 0 8.16 0z"/><path d="m19.31 154.72v-5.62h1.54a21.78 21.78 0 0 1 5.95.86 5.73 5.73 0 0 1 4.2 5.28 12.61 12.61 0 0 1 -.32 4c-.63 2.53-2.55 3.76-5 4.17a34.77 34.77 0 0 1 -5.19.47c-3.58.07-7.16.08-10.74 0a22.4 22.4 0 0 1 -5-.64c-3-.77-4.53-2.77-4.75-5.89a9.13 9.13 0 0 1 .64-4.13 5.74 5.74 0 0 1 4.76-3.55c1.53-.27 3.11-.3 4.66-.42a1.63 1.63 0 0 1 .38.07v5.55c-.69 0-1.35 0-2 0a18.88 18.88 0 0 0 -2.38.3 1.16 1.16 0 0 0 -.92 1.3 1.29 1.29 0 0 0 1 1.31 6 6 0 0 0 1.57.28q7.92 0 15.83 0a4 4 0 0 0 1.18-.19c.93-.27 1.26-.73 1.19-1.59a1.39 1.39 0 0 0 -1.41-1.28c-.88-.12-1.78-.18-2.67-.22s-1.64-.06-2.52-.06z"/><path d="m30.5 13v5.76l-4.14.77v4.74l4.14.73v5.44l-29.94-6.44v-4.5zm-9.31 7.39-8.76 1.41v.13l8.73 1.42z"/><path d="m12.34 66.34v-4.72h5.66v4.73h7.33v-6h5.15v11.72h-29.92v-11.62h5v5.89z"/><path d="m.58 28.6h5v3.91h24.91v5.71h-24.86v4h-5z"/><path d="m5.61 103.93h24.9v5.69h-24.89v4h-5v-13.62h5z"/><path d="m.57 6h24.8v-6h5.12v11.72h-29.92z"/><path d="m.56 98.13v-5.64h29.92v5.64z"/><path d="m36.8 132.93v-3.69l13-5.31v-.08h-13v-5.34h29.83v3.58l-13.31 5.56h13.31v5.28z"/><path d="m36.82 84.33a3.49 3.49 0 0 1 -.06-.37c0-2.54 0-5.09.13-7.62a6.27 6.27 0 0 1 4.11-5.88 8.75 8.75 0 0 1 2.13-.53 13 13 0 0 1 6.21.53 4.32 4.32 0 0 1 2.58 2.67c.09.23.19.45.29.68h.13c.17-.39.31-.81.51-1.19a4.56 4.56 0 0 1 3.31-2.4 24.08 24.08 0 0 1 3.06-.35c1.77-.14 3.54-.22 5.3-.35.44 0 .87-.18 1.3-.26.27 0 .55-.06.87-.09v5.71a18.52 18.52 0 0 1 -2.4.47c-2 .16-4.09.21-6.14.35a7.44 7.44 0 0 0 -2.05.39 2.22 2.22 0 0 0 -1.37 2.55h12v5.72zm4.91-5.71h7.63a2.26 2.26 0 0 0 -1.36-2.76 7.48 7.48 0 0 0 -4.7 0 2.22 2.22 0 0 0 -1.57 2.76z"/><path d="m36.8 92.62v-5.69h.52q10.82 0 21.61 0a9.52 9.52 0 0 1 5.36 1.33 6.22 6.22 0 0 1 2.71 4.35 8.59 8.59 0 0 1 -.41 4.79 6 6 0 0 1 -4.53 3.77 13.82 13.82 0 0 1 -3.07.34c-7.24 0-14.47 0-21.71 0h-.51v-5.66h.59q11.07 0 22.15 0a5.66 5.66 0 0 0 1.77-.33 1.22 1.22 0 0 0 .75-1.36 1.16 1.16 0 0 0 -.83-1.16 10.39 10.39 0 0 0 -2.2-.33c-7.15 0-14.3 0-21.46 0-.25-.01-.47-.04-.74-.05z"/><path d="m57.86 54.5v-5.56c.55 0 1.07-.06 1.59-.14a6.76 6.76 0 0 0 1.33-.31 1.47 1.47 0 0 0 1.09-1.69 1.45 1.45 0 0 0 -1.4-1.24 5.69 5.69 0 0 0 -5.47 2c-1 1.22-2 2.51-3 3.7a8.54 8.54 0 0 1 -4.79 2.83 10.61 10.61 0 0 1 -7.89-1 6.33 6.33 0 0 1 -3-4.55 8.71 8.71 0 0 1 .25-4.18 5.28 5.28 0 0 1 2.7-3.17 12 12 0 0 1 6-1.07v5.39c-.81.09-1.58.15-2.33.28-.93.15-1.44.66-1.46 1.35a1.66 1.66 0 0 0 1.52 1.51 4.58 4.58 0 0 0 4.72-1.6c.92-1.07 1.73-2.23 2.59-3.34a9.11 9.11 0 0 1 6.17-3.71 12.24 12.24 0 0 1 7 .86 6.39 6.39 0 0 1 3.68 5.59 7.73 7.73 0 0 1 -.72 4.36 6.38 6.38 0 0 1 -4.58 3.32 29.07 29.07 0 0 1 -3.5.41 3.17 3.17 0 0 1 -.5-.04z"/><path d="m66.66 153.75v4.48l-29.85 5.67v-5.56l16.51-2.51v-.1l-16.49-2.55v-5.18z"/><path d="m61.53 61.54v-6h5.1v11.73h-29.82v-11.6h5v5.87h6.7v-4.72h5.65v4.72z"/><path d="m36.8 146.54v-11.61h5v5.88h6.72v-4.74h5.65v4.73h7.33v-6h5.13v11.72z"/><path d="m41.81 107.06h24.83v5.72h-24.8v4h-5v-13.63h5z"/><path d="m.3 177v-5.64h66.63v5.64z"/></g></svg>