<svg enable-background="new 0 0 1130.66 612" viewBox="0 0 1130.7 612" xmlns="http://www.w3.org/2000/svg"><path d="m85.31 168.96c.74-.4 1.75-.61 2.17-1.23 1.64-2.42 3.09-4.96 4.6-7.46.13-.21.34-.49.28-.67-2.1-6.95 3.82-10.6 6.49-15.54 3.08-5.7 6.14-11.47 9.9-16.72 6.75-9.42 13.76-18.68 21.13-27.63 7.29-8.85 15.12-17.26 22.8-25.77 1.22-1.35 2.97-2.22 4.45-3.36 1.66-1.28 4-2.28 4.79-3.98 2.62-5.66 6.91-10 10.96-14.44 2.6-2.85 6.02-5.29 9.53-6.92 7.08-3.3 14.35-6.33 21.8-8.64 3.8-1.18 8.25-.12 12.24-.91 5.37-1.07 10.64-1.33 15.68.61 2.6 1 4.7 3.3 7.05 4.99.83.6 1.68 1.5 2.59 1.59 2.95.28 3.93 1.81 4.92 4.57.82 2.32 2.24 4.63 3.41 6.95 3.75 7.42 8.15 14.51 11.91 21.93 3.7 7.31 3.91 15.41 3.91 23.38.01 13.76-2.27 27.26-5.02 40.72-2.45 11.99-5.82 23.68-10.3 35.03-.8 2.02-3.03 3.48-4.6 5.2-.66.72-1.47 1.37-1.93 2.21-5.74 10.28-11.46 20.57-17.09 30.91-.44.82-.27 1.98-.34 2.99-.05.8.23 1.75-.09 2.4-3.34 6.61-6.51 13.33-10.24 19.72-8.13 13.93-17.9 26.75-28.99 38.41-11.32 11.9-23.26 23.21-34.97 34.74-5.76 5.67-11.18 11.8-17.51 16.75-6.41 5.02-13.69 8.95-20.74 13.1-2.02 1.19-3.22 2.28-2.56 4.63.66 2.33 2.35 3.17 4.62 2.73 9.41-1.83 18.9-3.38 28.19-5.7 8.2-2.05 16.32-4.62 24.21-7.65 8.91-3.43 17.44-7.84 26.29-11.46 12.67-5.19 22.02-14.64 31.4-24.02 1.92-1.92 2.7-5 3.94-7.58 1.08-2.26 1.84-4.7 3.16-6.8.64-1.01 2.19-1.5 3.41-2.07 1.15-.55 2.4-.89 3.61-1.33-.15-.46-.31-.92-.46-1.38-1.78.63-3.52 1.42-5.34 1.84-1.21.27-2.55.01-3.83-.02.78-.95 1.47-2 2.37-2.82 1.05-.96 2.27-1.73 3.42-2.58-.23-.4-.45-.79-.68-1.19-2.73 1.39-5.45 2.79-8.44 4.31-4.25-4.24-4.34-9.65-2.83-14.84 2.68-9.18 7.05-17.54 14.43-24 3.68-3.22 13.16-1.06 15.91 3.66 2.31 3.97 3.74 7.99 2.65 12.79-.39 1.7.49 3.87 1.29 5.59 1.04 2.26 2.49 2.6 5.33 1.73 3.78-1.16 8.1-.93 12.14-.66 1.08.07 2.4 2.34 2.91 3.83 1.21 3.52 1.77 7.28 3.03 10.78 1.95 5.42.59 10.64-.55 15.84-2.64 11.99-3.35 24.15.08 35.87 3.04 10.38 7.83 16.6 20.48 15.23 3.61-.39 7.12-4.36 6.11-7.88-2.35-8.2.14-15.65 2.21-23.42 2.6-9.75 6.72-18.69 11.95-27.2 4.46-7.26 10.77-12.72 18.02-16.94 6.19-3.6 20.48-.47 24.99 5.11.81 1.01 1.29 2.45 1.49 3.76 1.2 8.06.45 15.89-.87 24.03-1.67 10.31-8.53 17.2-12.87 25.71-1.22 2.38-3.26 5.68-2.47 7.48 1.91 4.34 5.55 7.88 10.91 7.74 3.52-.09 7.07-.76 10.52-1.58 5.26-1.24 6.95-2.87 7.09-8.19.25-9.98 3.43-19.1 7.42-27.98 1.67-3.71 4.16-7.08 6.4-10.52 3.77-5.79 7.04-12.05 11.65-17.09 3.66-4 8.62-7.7 13.71-9.28 6.28-1.95 13.09-.37 18.31 4.34 2.75 2.48 5.42 5.31 7.19 8.5 1.47 2.65 2.23 6.07 2.19 9.13-.14 11.03-5.16 20.06-12.46 28.04-3.7 4.04-7.09 8.37-10.8 12.4-1.91 2.07-2.07 4.09-.94 6.47 2.29 4.86 5.85 6.61 10.76 4.55 12.45-5.24 24.39-11.35 34.03-21.19 5.56-5.67 11.12-11.38 17.08-16.62 3.6-3.17 7.91-5.57 11.99-8.18 3.74-2.39 5.07-5.66 5.06-10.06-.01-3.41.46-7.02 1.65-10.19 3-8.01 4.58-16.22 4.88-24.73.03-.75-.08-1.56.16-2.23 7.81-22.24 10.62-45.76 17.28-68.26 4.8-16.22 10.64-32.15 16.34-48.09 3.51-9.8 7.22-19.57 11.61-29 4.99-10.7 10.88-20.98 16.3-31.49 4.57-8.85 10.65-16.64 18.01-23.17 5.82-5.15 12.19-10.07 19.12-13.44 5.54-2.69 12.26-2.71 18.36.39 1.93.98 4.4 1.09 6.1 2.31 6.93 5 11.26 11.74 12.21 20.36 1.02 9.28 2.49 18.56 2.63 27.86.13 8.81-1.03 17.65-1.93 26.45-1.21 11.81-3.41 23.58-8.48 34.29-7.03 14.83-15.08 29.18-22.87 43.65-7.97 14.82-18.99 27.47-29.29 40.63-.92 1.17-1.95 2.3-3.11 3.23-7.52 6.07-12.04 14.78-9.39 23.35 4.01 12.97-.32 24.93-.92 37.28-.52 10.68-2.42 21.28-3.46 31.94-.19 2 .38 4.35 1.34 6.13 1.73 3.2 4.63 3.38 7.72 1.82 7.87-3.98 15.76-7.95 23.61-11.97.75-.38 1.36-1.08 1.97-1.68 5.73-5.63 11.27-11.47 17.22-16.85 7.25-6.55 15.11-12.43 22.22-19.12 6.17-5.8 14.09-8.29 21.03-12.58 4.76-2.94 9.95-4.85 15.45-4.49 7.5.5 14.72 2.44 20.56 7.65 2.09 1.86 6.98 11.59 7.4 14.47 2.02 14.04 3.92 28.09 6.09 42.11.27 1.75 1.82 4.64 2.83 4.66 2.07.05 4.74-.97 6.15-2.49 2.86-3.08 5.13-6.74 7.5-10.25 4.86-7.18 9.52-14.5 14.46-21.63 4.52-6.53 8.63-13.54 14.16-19.11 5.6-5.63 12.66-9.83 19.19-14.51 5.53-3.96 11.88-5.59 18.61-6.09 10.82-.8 14.38 2.13 14.87 12.29.07 1.37-.06 2.76.12 4.12.13.98.6 1.92.92 2.88 1.1-.4 2.57-.49 3.22-1.26 2.41-2.83 4.16-6.31 6.86-8.78 5.33-4.87 11.25-9.65 18.56-10.34 4.51-.43 9.87.91 13.82 3.21 7.62 4.45 10.55 12.37 11.38 20.85.5 5.09-.43 9.95-2.54 14.89-1.89 4.45-2.34 9.67-2.64 14.6-.31 5.07-.03 10.25.62 15.3.84 6.44 8.12 9.82 13.77 6.87 7.29-3.8 13.01-9.45 18.58-15.33 8.63-9.12 17.5-18.01 25.96-27.28 6.97-7.64 14.86-13.99 23.71-19.28 12.51-7.49 25.77-11.02 40.78-8.04 0-3.66.55-7.34-.14-10.77-.85-4.18-1.11-8.09.51-12.05.27-.67.43-1.55.94-1.94 4.73-3.62 3.44-8.81 3.68-13.61-4.74-3.13-3.03-8.09-2.94-12.22.1-4.98-1.7-10.31 1.96-15.01.85-1.09.26-3.26.47-4.92.4-3.14.89-6.27 1.38-9.4 1.12-7.21 2.08-14.45 3.46-21.61.61-3.19 2.07-6.21 3.1-9.32.37-1.1.6-2.24.98-3.7.45.94.79 1.65 1.45 3.02 2.31-9.18 3.94-17.88 6.76-26.18 2.85-8.36 6.88-16.32 11.14-24.12-1.31 7.19-2.59 14.38-3.94 21.55-1.24 6.59-2.96 13.12-3.71 19.76-1.12 9.91-1.94 19.88-2.22 29.85-.5 17.71-.64 35.43-.59 53.15.01 4.94 1.39 9.86 1.9 14.82 1.79 17.31 3.47 34.63 5.2 51.94.09.87-.02 1.92.44 2.55.76 1.05 1.78 2.3 2.91 2.58.85.21 2.34-.71 3.04-1.55 3.15-3.8 7.25-7.33 8.85-11.75 1.64-4.52 4.16-8.4 6.1-12.65 3.34-7.29 6.38-14.72 9.78-21.98 5.06-10.8 11.12-21.2 15.31-32.32 4.6-12.2 7.94-24.92 11.17-37.58 3.93-15.45 7.34-31.04 10.64-46.63 1.49-7.04 2.59-14.23 3.03-21.41.25-4.11-1.16-8.33-1.88-12.49-1.81-10.53-3.31-21.13-5.65-31.54-.95-4.23-3.09-8.61-5.89-11.89-2.66-3.13-6.59-5.87-10.5-7.1-7.19-2.26-12.95 1.09-17.49 8.72-4.22 7.09-8.25 11.47-12.15 13.22-.13-1.73-.26-3.48-.4-5.49.56-.11 1.51-.29 2.65-.51-.84-1.92-1.64-3.75-2.44-5.57 5.18-2.5 5.62-3.45 4.44-9.7 1.02.05 1.97.11 3.58.19-2.76-3.38-.79-5.43.94-7.8 1.16-1.59 1.4-3.82 2.39-5.58.72-1.28 1.79-2.67 3.05-3.29 2.48-1.23 5.17-2.14 7.86-2.83 2.3-.58 4.75-.6 7.11-.99.9-.15 1.74-.67 3.62-1.42 1.69 0 4.57.04 7.44-.01 6.24-.11 11.89 1.44 16.4 5.98 3.45 3.47 6.82 7.03 10.16 10.61.47.51.66 1.32.87 2.02 1.8 6.03 3.76 12.02 5.3 18.11 1.09 4.33 1.99 8.77 2.3 13.21.73 10.51 1.25 21.05 1.47 31.58.19 9 .63 18.1-.46 26.98-1.29 10.53-4.03 20.89-6.28 31.29-1.31 6.08-2.55 12.21-4.43 18.13-4.1 12.9-7.03 26.29-14.82 37.74-.28.41-.58.86-.68 1.33-2.88 13.15-10.01 24.44-16.27 36.02-7.04 13.02-15.22 25.42-22.68 38.21-3.56 6.11-6.63 12.5-9.92 18.77-1.96 3.74-4.04 7.42-5.8 11.25-.64 1.39-1.26 3.58-.62 4.65 6.31 10.61 12.38 21.42 19.5 31.48 12.4 17.52 25.8 34.31 41.25 49.32 6.58 6.39 6.91 7.88 3.66 16.28-2.8 7.21-5.56 7.79-13.05 5.77-9.49-2.55-15.26-9.54-22.16-15.5-7.84-6.78-14.08-14.84-20.28-22.9-6.68-8.69-12.77-17.87-18.59-27.16-1.26-2.02-3.31-5-1.3-8.18.2-.32-1.25-1.85-2.1-2.64-1.45-1.36-3.38-2.33-4.46-3.9-2.38-3.46-4.37-7.19-6.74-11.19-1.88 2.06-3.29 3.97-5.05 5.46-3.12 2.62-6.17 5.37-10.71 5.5-1.61.05-3.35 1.02-4.74 1.99-6.49 4.57-13.81 6.99-21.51 8.19-13.49 2.09-23.71-4.6-33.19-12.97-.46-.41-.75-1.07-1.27-1.37-5.44-3.07-9.3-6.99-9.47-13.88-.05-2.08-2.71-3.58-2.44-6.56.2-2.15-5.92-2.56-7.74-.23-6.81 8.72-14.98 15.91-24.2 21.94-8.49 5.55-17.39 9.44-27.81 5.89-2.73-.93-5.83-1.58-7.94-3.35-2.19-1.83-4.38-4.68-4.84-7.38-1.66-9.9-2.89-19.9-3.66-29.91-.37-4.79.84-9.68 1.04-14.54.22-5.47.29-10.96.05-16.43-.07-1.6-1.18-4.28-2.23-4.5-2.45-.51-5.33-.34-7.69.52-2.22.81-4.09 2.74-5.95 4.36-1.18 1.03-2.45 2.22-3.04 3.61-4.11 9.62-8.26 19.23-11.95 29.01-1.74 4.61-2.69 9.56-3.61 14.44-1.02 5.38-3.77 9.68-7.32 13.65-3.13 3.49-7.94 4.44-11.86 2.23-4.11-2.32-5.79-6.58-4.17-11.2 3.18-9.03 6.77-17.92 9.65-27.04 2.95-9.33 6.08-18.68 6.05-28.67-.02-4.71-3.66-7.67-8.16-6.35-8.62 2.53-14.86 8.54-20.8 14.78-6.22 6.54-11.38 13.86-15.09 22.18-.98 2.21-3.02 3.92-4.42 5.97-5.13 7.51-10.42 14.93-15.21 22.65-4.19 6.75-9.98 11.43-16.88 14.93-3.85 1.95-7.58 1.01-11-1.19-5.3-3.41-9.14-8.01-10.76-14.27-3.49.03-5.87 1-7.78 4.19-3.2 5.36-8.55 8.47-13.9 11.51-9.21 5.24-18.68 5.16-28.44 2.05-.83-.26-1.71-.37-2.57-.52-7.62-1.36-12.66-5.88-15.86-12.76-.67-1.45-1.61-2.83-2.67-4.02-2.92-3.28-3.42-6.86-1.56-10.74 1.99-4.15 4.24-8.19 6.11-12.4.47-1.05-.1-2.56-.19-3.85-1.34.4-3.23.36-3.94 1.26-4.41 5.56-8.25 11.58-12.86 16.95-5.93 6.9-12.17 13.57-18.73 19.85-4.27 4.08-9.24 7.47-14.12 10.86-3.57 2.48-10.18 1.69-13.7-.68-2.55-1.72-5.48-2.87-8.25-4.25-5.76-2.86-7.23-5.32-5.89-11.67.88-4.18.19-8.04-.46-12.11-.59-3.72-.44-7.69.13-11.43 1.37-8.83 3.29-17.57 4.78-26.38.98-5.77 1.57-11.6 2.39-17.39.17-1.22.81-2.38.87-3.59.09-1.76.5-4.1-.42-5.13-.9-1.02-3.49-1.36-4.99-.88-7 2.23-12.5 6.83-16.54 12.79-7.18 10.58-12.34 22.22-16.5 34.3-1.05 3.06-1.92 6.23-3.35 9.11-4.43 8.93-6.44 18.55-8.55 28.17-1.14 5.21-6.78 10.64-14.21 10.55-4.37-.05-7.48-4.91-5.27-8.87 2.37-4.24 3.2-8.51 3.33-13.4.1-3.89 2.33-7.77 3.84-11.56 1.29-3.23.49-5.51-2.39-7.32-2.89-1.82-5.17-2.18-7.72.95-3.8 4.68-7.91 9.15-12.31 13.28-2.56 2.4-5.94 3.93-8.92 5.89-5.98 3.94-11.75 8.25-17.96 11.77-7.27 4.12-15.45 5-23.6 3.86-6.13-.86-12.07-2.96-18.17-4.1-5.05-.94-9.75-4.39-15.34-1.9-4.65 2.07-9.42 3.99-14.3 5.39-6.31 1.81-12.74 3.85-19.22 4.31-9.67.68-19.47-.04-28.06-5.41-5.29-3.3-9.78-3.3-15.65-.45-10.43 5.06-21.42 5.31-31.79-1.13-3.51-2.18-5.59-5.34-7.2-9.22-5.1-12.25-6.22-25.05-6.01-38.08.15-9.42.39-18.83.71-28.25.08-2.4-1.21-3.5-3.13-3.09-6.42 1.4-13.14 2.54-17.19 8.57-4.09 6.09-7.97 12.32-11.81 18.56-5.89 9.55-14.24 16.63-23.15 23.09-4.1 2.97-8.51 5.54-12.9 8.08-6.25 3.62-12.34 7.71-18.99 10.38-8.46 3.4-17.34 5.87-26.18 8.18-6.33 1.66-12.93 2.25-19.34 3.64-1.58.34-4.13 2.02-4.07 2.93.17 2.34.07 5.3 3.35 6.42 2.7.92 5.18 2.46 7.86 3.47 6.39 2.39 9.86 8.17 14.71 12.35 2.71 2.34 6 4.01 8.66 6.4 5.46 4.89 11.34 9.54 15.84 15.23 6.23 7.89 11.75 16.42 16.85 25.1 5.68 9.68 9.64 20.19 12.16 31.2.75 3.27 2.44 6.35 2.97 9.63 1.12 6.97 2.28 14 2.42 21.03.11 5.44 0 11-1.52 16.45-.57 2.05.79 4.58.98 6.92.22 2.69.28 5.42.1 8.11-.11 1.7-.69 3.39-1.21 5.03-2.14 6.75-4.36 13.46-6.5 20.21-.43 1.36-.47 2.86-.93 4.21-.5 1.48-.92 3.52-2.03 4.15-2.87 1.63-5.21 3.23-4.67 6.99.03.19-.18.5-.37.63-5.59 3.75-8.84 10.07-14.62 13.51-2.77 1.65-6.07 2.47-9.2 3.44-2.12.66-4.4.75-6.53 1.39-5.52 1.66-10.94 2.12-16.44-.16-1.68-.7-3.66-.68-5.45-1.15-2.11-.56-4.17-1.33-6.26-1.97-2.45-.75-4.92-1.44-7.38-2.17-2.36-.71-5.05-.95-7-2.27-6.75-4.53-13.39-9.26-19.8-14.26-10.7-8.33-18.87-19-26.46-30.09-4.78-6.99-9.56-14.05-13.56-21.5-3.04-5.65-4.48-12.14-7.3-17.93-2.41-4.95-3.36-10.32-5.75-15.37-4.52-9.57-7.32-20.02-10.18-30.28-2.76-9.93-5.25-20-6.84-30.17-1.53-9.81-1.69-19.83-2.59-29.74-.54-5.94-1.57-11.85-1.98-17.8-.31-4.44-.21-8.94.08-13.39.71-11.05 1.15-22.16 2.6-33.12 1.48-11.18 4.13-22.21 6.1-33.33 1.06-6.01 1.63-12.11 2.67-18.13.91-5.23 1.82-10.51 3.38-15.57 1.49-4.81 4.06-9.27 5.73-14.03 2.88-8.19 5.39-16.51 8.13-24.75.93-2.81 1.91-5.63 3.16-8.3 2.94-6.31 6.06-12.54 9.11-18.8 1.85-3.81 3.59-7.68 5.57-11.41 2.98-5.6 6.15-11.11 9.23-16.66.31.27.59.51.87.75zm146.76-96.29c-3.83-2.5-7.1-4.76-10.51-6.8-.72-.43-1.92-.2-2.87-.09-1.73.2-3.45.51-5.16.84-8.67 1.67-17.57 2.61-25.95 5.22-14 4.36-24.03 14.78-33.83 25.03-5.73 6-10.74 12.7-15.79 19.31-7.79 10.19-16.02 20.13-22.81 30.97-9.18 14.65-17.18 30.05-25.65 45.14-.41.73-.71 1.63-.72 2.45-.24 10.8-5.2 20.26-9.21 29.79-6.8 16.18-14.18 32.04-17.33 49.52-1.93 10.73-5.02 21.25-7.03 31.97-1.67 8.92-2.7 17.97-3.7 26.99-1.58 14.23-3.16 28.47-4.2 42.74-.38 5.29.44 10.76 1.32 16.04 1.02 6.08 3.04 11.99 4.03 18.08 1.52 9.31 1.53 18.97 3.99 27.99 3.67 13.47 8.38 26.73 13.64 39.68 6 14.77 13.25 29.01 22.98 41.8 5.36 7.04 10.24 14.6 16.47 20.79 12.75 12.68 27.12 23.19 45.06 27.64 4.63 1.15 9.16 1.34 13.48-.92 2.8-1.47 5.26-3.8 8.19-4.78 7.4-2.46 11.41-7.92 14.01-14.69 1.69-4.4 2.2-9.36 4.46-13.39 1.84-3.28 1.99-6.08 1.52-9.49-.55-3.97-.52-8.02-.81-12.03-.09-1.29-.11-2.72-.68-3.81-1.66-3.18-3.82-6.1-2.78-10.07.26-.98-.05-2.22-.4-3.22-3.52-9.92-6.65-20.02-10.82-29.67-3.49-8.06-8-15.71-12.48-23.29-2.63-4.45-6.13-8.39-9.18-12.6-7.72-10.67-16.54-20.42-27.16-28.13-12.06-8.76-25.48-15.2-39.63-20.01-5.47-1.86-10.87-2.72-16.84-1.82-7.92 1.2-14.49-2.63-19.83-8.27-1.01-1.06-1.39-3.22-1.24-4.79.84-8.37 5.74-13.34 14.08-14.75.96-.16 1.84-.74 2.77-1.09 3.59-1.37 5.66-4.61 8.51-6.82 5.44-4.23 11.52-7.66 17.42-11.28 8.02-4.93 16.5-9 23.62-15.51 7.39-6.76 16.08-12.08 23.47-18.84 10.73-9.83 21.09-20.1 31.05-30.72 7.7-8.21 16.37-15.61 21.89-25.84 3.23-5.98 8.29-10.97 11.52-16.95 6.45-11.93 12.42-24.13 18.17-36.41 4.06-8.68 7.44-17.67 11.06-26.55.35-.86.33-1.88.49-2.92-1.15.3-2.03.53-3.75.98.63-4.12.88-7.7 1.75-11.13 1.95-7.64 1.7-15.98 6.95-22.63.34-.43.33-1.78.02-1.97-3.91-2.49-2.61-6.65-3.17-10.09-1.34-8.28-2.18-16.65-3.47-24.94-.29-1.87-1.44-3.68-2.48-5.34-2.32-3.69-3.95-7.47-2.44-11.32zm384.55-19.55c-1 3.25-2.86 2.56-5.2 1.75-1.82-.62-4.13-.79-5.96-.27-5.36 1.53-9.35 5.08-12.52 9.6-2.72 3.88-5.48 7.72-8.15 11.63-9.95 14.52-16.82 30.5-22.38 47.11-4.34 12.97-8.35 26.1-13.52 38.73-5.89 14.4-9.94 29.15-12.61 44.43-2.12 12.14-5.08 24.14-7.71 36.19-1.32 6.05-2.73 12.09-4.07 18.13-.75 3.4 2.68 3.81 4.2 5.54.41.46 2.37.36 2.85-.17 2.3-2.58 5.19-5.09 6.3-8.19 2.64-7.36 7.62-12.79 12.87-18.13 7.23-7.36 15.18-14.1 21.7-22.03 9.14-11.13 17.61-22.87 25.68-34.81 5.6-8.28 10.09-17.32 14.95-26.1.65-1.18 1.27-3.46.7-4.05-1.99-2.01-2.72-3.91-1.43-6.51.16-.32-.08-1.17-.37-1.32-2.91-1.48-1.56-3.61-.75-5.44 3.04-6.81 6.2-13.56 9.35-20.32.94-2.02 2.06-3.95 2.98-5.97.95-2.08 1.73-4.23 2.62-6.33.81-1.91 1.67-3.79 2.59-5.89-1.2-.16-1.94-.26-3.63-.49 1.57-2.03 2.56-3.7 3.92-4.96 1.81-1.67 3.26-11.34 1.6-13.17-.42-.47-1.42-.41-2.76-.75 3.38-.57 3.55-2.43 2.88-4.78-.27-.95-.24-1.98-.37-2.97-1.14-8.96-4.58-16.39-13.76-20.46zm346.2 239.15c-3.87.82-9.79-.75-13.19 4.54-2.53 3.93-5.43 7.95-6.63 12.35-1.58 5.81-1.5 12.06-2.44 18.07-.72 4.61.14 8.45 3.45 11.9 1.2 1.25 1.39 3.42 2.28 5.04.74 1.35 1.63 3.31 2.8 3.59 3.31.79 6.83 1.36 10.19 1.1 8.81-.66 15.59-6.1 22.66-10.63 2.5-1.6 4.23-4.35 6.56-6.28 3.39-2.8 3.45-3.75 1.72-7.85-2.02-4.79-4.45-9.72-4.92-14.76-1-10.61-12.04-18.2-22.48-17.07zm-316.18 31.67c-.5 8.95 1.3 14.24 7.35 18.16 4.92 3.19 8.78 2.91 11.82-2.21.69-1.16 1.41-2.47 2.46-3.21 10.89-7.67 14.41-19.68 18-31.4 2.21-7.2 1.39-7.16-5.37-11.02-7.45-4.25-14.67-3.21-21.67.42-3.66 1.9-7.62 4.17-8.6 8.84-1.57 7.53-2.95 15.1-3.99 20.42zm-322.31 3.21c.52.83 1.19 2.83 2.59 3.88 2.07 1.55 4.2.6 5.92-1.26 3.64-3.93 7.74-7.5 10.89-11.78 4.5-6.11 8.54-12.58 8.83-20.63.11-2.95-.86-5.1-3.37-6.55-4.2-2.43-10.95-1.32-13.53 2.7-6.37 9.89-10.05 20.79-11.33 33.64zm102.05-25.53c-.02-7.02-1.85-9.05-7.22-8.5-6.53.67-12.32 3.29-15.45 9.45-2.35 4.63-4.67 9.46-5.75 14.47-.58 2.7.87 6.35 2.51 8.85 1.1 1.68 4.14 3.27 6.57 1.15 4.21-3.67 8.54-7.29 12.19-11.48 3.81-4.4 6.43-9.64 7.15-13.94zm-200.39-29.87c.68-.41 1.38-.59 1.44-.91.69-3.51 1.66-6.64 5.38-8.39.77-.36.59-3.09.52-4.71-.03-.61-1.01-1.17-1.56-1.75-.65.99-1.13 2.17-1.98 2.94-2.08 1.91-4.04 3.75-2.59 6.93-3.48 1.08-2.36 3.31-1.21 5.89zm136.41 12.23c-7.47-1.91-10.48-1.81-12.5.27 5.83 2.5 8.93 2.5 12.5-.27zm-236.62 105.3c-.13-4.04-5.65-7.4-9.03-6.14 2.86 1.96 5.72 3.9 9.03 6.14zm959.42-274.79c.3-.04.59-.08.89-.12.11-1.76.36-3.52.27-5.27-.03-.64-.83-1.24-1.28-1.86-.54.69-1.63 1.47-1.53 2.06.31 1.77 1.07 3.46 1.65 5.19zm-952.53 279.08c1.83 1.71 3.33 3.11 5.15 4.82.19-4.41-.65-5.2-5.15-4.82zm530.78-111.3c-.33-.52-.65-1.04-.98-1.56l-6.27 3.96c.28.42.56.85.85 1.27 2.13-1.23 4.26-2.45 6.4-3.67z" fill="#b92a26"/></svg>