<svg enable-background="new -8.8 200.8 280.6 119.1" viewBox="-8.8 200.8 280.6 119.1" xmlns="http://www.w3.org/2000/svg"><path d="m234.4 227.3c0-3.3-2.1-3.8-4-3.8-4.2 0-16.9 1.7-40.8 16.7-15.2-10.3-26.8-13-43.6-13-1.1 0-5 .5-6 .5-1.4 0-2.6-.4-4-.4s-2.6 1.8-2.6 3.8c0 1.8.9 3.5 2.3 3.7.2 0 2 .4 4.3.4.9 0 4.6-.5 6-.5 13.3 0 24.5 1.9 37 9.4-13.3 7.5-21.2 12.2-35.5 12.2-5.5 0-11.2-3.1-11.3-3.1-.3-.2-.7-.2-1-.2-1.5 0-2.7 1.7-2.7 3.7 0 1.4.7 2.9 1.7 3.5.3.1 5.3 3.7 13.3 3.7 16.6 0 26.9-5.8 42-15.4 9.9 6.9 20 14.1 31.3 14.1 2.4 0 4.8-.1 7.2-.4 1.6-.2 2.5-1.9 2.5-4.1-.1-2.3-1.4-3.6-2.9-3.5-2.3.1-4.5.4-6.8.4-9.3 0-18.1-5.7-25-10.5 20.9-12.4 31.6-13.5 34.7-13.5.4 0 .8.1 1.3.1 1.5 0 2.6-1.7 2.6-3.8" fill="#a3007d"/><path d="m240 312.2c-9.6.5-17.4-6.1-17.9-16.5-.9-18.5 20.1-30.2 32.3-38.7 2 15.4 2.7 23.2 3 28 .5 11.7-4.9 26.5-17.4 27.2m28.6-72.7c-.7 0-1.3.2-1.9.6 0 .1-1.9.3-7 4.6l-.1-1.9c-.2-4.7.1-11.8.3-14.5v-.5c-.1-2.2-1.7-3.7-3.7-3.6-1.4.1-2.8 1.2-3.2 2.7-1 3.9-2.1 14.3-9 14.6-1.1.1-1.4-2.6-1.5-3.2-.3-3.3.4-6.9 1-10.1.1-.4.2-.8.2-1.2-.1-2-1.8-3.6-3.7-3.5-1.5.1-2.8 1.2-3.2 2.8-1 4.1-1.6 8.4-1.4 12.6.4 5.1 3.6 10.4 8.8 10.2 3.4-.2 7.2-3.1 8.8-6.5-.2 2.4.1 6.8.1 6.8-15.4 10.9-39.3 23.4-38.1 46.7.8 14.7 11.8 24.4 25.4 23.8 16.8-.9 24.6-19.4 23.8-35.3-.3-6.8-1.5-16.9-3.5-32 7.4-5.1 9.5-6.6 9.8-6.8.8-.7 1.3-1.7 1.3-3-.1-1.9-1.6-3.4-3.2-3.3" fill="#a3007d"/><path d="m113.4 252.5c-2 0-3.1-.9-3.1-3.3 0-6.2 6.1-11.3 10.5-13.7.5 2.4 2.5 4.2 4.7 4.2.7 0 1.1-.2 1.8-.4-1.1 5-9 13.2-13.9 13.2m13.1-21.2c-1.2 0-2.3.1-2.9.4-.4-2.1-2-3.6-3.8-3.6-.5 0-1.1.1-1.5.3-7 3.3-14.2 10.7-14.2 19.7 0 6.7 4.4 11.4 10.4 11.4 8.2 0 19.1-11.3 19.1-20.5v-1c-.6-4.3-3.4-6.7-7.1-6.7" fill="#a3007d"/><path d="m103.6 255.1c.1-2.2-1.3-4-3.1-4.2-11-.9-8-25.9-18.6-25.8-5.6 0-24.2 23.2-28.2 23.3-5.1 0-5.9-25.3-15.3-25.2-6.2.1-31.8 26.1-38.9 31.4-.2.3-.5.4-1.1.8l1.3-3.7c1.8-5.3 6.5-14.5 6.4-21.3-.1-8.4-6.6-4.4-6.5.4 0 3.1-4.9 14.5-5.9 17.5-.8 2.3-2.5 6.5-2.5 9 0 4.2 2.9 7 6.1 7 1.5 0 3.3-.5 5.5-2.2 5.8-4.4 31.4-29.9 35.5-30.4 3.2-.3 5.4 25.4 15.2 25.3 7.5-.1 23.6-22.3 28.5-23.3 3.4 0 4.1 25.2 18.4 25.7 1.9 0 3.1-1.9 3.2-4.3" fill="#a3007d"/><g fill="#fff"><path d="m109.3 201h7.4v1.1h-3.1v7.8h-1.3v-7.8h-3z"/><path d="m123.6 201h1.3v8.9h-1.3z"/><path d="m139.7 201h1.2v8.9h-1.3v-6.9l-2.7 3.4h-.2l-2.8-3.4v6.9h-1.3v-8.9h1.2l2.9 3.6z"/><path d="m148.5 201h5v1.1h-3.8v2.7h3.6v1.1h-3.6v2.8h3.9v1.1h-5.1z"/><path d="m162.9 206.1-1-.6c-.6-.4-1-.7-1.3-1.1s-.4-.8-.4-1.2c0-.7.2-1.3.7-1.7s1.1-.7 1.9-.7c.7 0 1.4.2 2 .6v1.4c-.6-.6-1.3-.9-2.1-.9-.4 0-.8.1-1 .3-.3.2-.4.4-.4.7s.1.5.3.7.5.5.9.7l1 .6c1.1.6 1.6 1.5 1.6 2.5 0 .7-.2 1.3-.7 1.7s-1.1.7-1.9.7c-.9 0-1.7-.3-2.4-.8v-1.6c.7.9 1.5 1.3 2.4 1.3.4 0 .7-.1 1-.3s.4-.5.4-.8c.2-.5-.2-1-1-1.5z"/><path d="m183.9 206.1-1-.6c-.6-.4-1-.7-1.3-1.1s-.4-.8-.4-1.2c0-.7.2-1.3.7-1.7s1.1-.7 1.9-.7c.7 0 1.4.2 2 .6v1.4c-.6-.6-1.3-.9-2.1-.9-.4 0-.8.1-1 .3-.3.2-.4.4-.4.7s.1.5.3.7.5.5.9.7l1 .6c1.1.6 1.6 1.5 1.6 2.5 0 .7-.2 1.3-.7 1.7s-1.1.7-1.9.7c-.9 0-1.7-.3-2.4-.8v-1.6c.7.9 1.5 1.3 2.4 1.3.4 0 .7-.1 1-.3s.4-.5.4-.8c.2-.5-.2-1-1-1.5z"/><path d="m202.3 210.4-1.3 1.2c-.4 0-.8-.1-1.2-.2s-.9-.3-1.3-.5-1-.6-1.8-1.1c-1.1-.2-2-.7-2.7-1.5s-1-1.8-1-2.9c0-1.3.5-2.4 1.4-3.3s2-1.3 3.4-1.3 2.5.4 3.4 1.3 1.4 1.9 1.4 3.2c0 1.1-.3 2.1-1 2.9s-1.6 1.4-2.7 1.6l.3.1c1 .4 1.8.6 2.3.6.2.1.5 0 .8-.1zm-4.6-8.3c-1 0-1.8.3-2.5 1-.7.6-1 1.5-1 2.4 0 1 .3 1.7 1 2.4s1.5.9 2.5.9 1.8-.3 2.5-1c.7-.6 1-1.4 1-2.4s-.3-1.8-1-2.4-1.5-.9-2.5-.9z"/><path d="m216 201h1.3v5c0 .7 0 1.2-.1 1.5s-.2.6-.4.9c-.1.2-.3.4-.5.6-.7.6-1.6.9-2.8.9s-2.1-.3-2.8-.9c-.2-.2-.4-.4-.5-.6s-.3-.5-.4-.8-.1-.9-.1-1.6v-5h1.3v5c0 .8.1 1.4.3 1.7s.5.6.9.8.8.3 1.4.3c.8 0 1.4-.2 1.8-.6.2-.2.4-.5.5-.8s.2-.8.2-1.5z"/><path d="m227.2 200.9h.9l4 8.9h-1.3l-1.2-2.6h-3.8l-1.1 2.6h-1.3zm1.9 5.2-1.4-3.2-1.3 3.2z"/><path d="m238.8 209.8v-8.8h2.2c.9 0 1.6.2 2.1.7.5.4.8 1 .8 1.8 0 .5-.1 1-.4 1.3-.3.4-.6.7-1.1.8.3.2.6.4.8.8.3.3.7.9 1.1 1.7.3.5.6.9.7 1.1l.5.6h-1.5l-.4-.6s0-.1-.1-.1l-.6-.9-.4-.7c-.3-.4-.5-.7-.7-.9s-.4-.4-.6-.5-.5-.1-.9-.1h-.3v3.9h-1.2zm1.7-7.7h-.4v2.8h.5c.6 0 1.1-.1 1.3-.2s.4-.3.6-.5c.1-.2.2-.5.2-.8s-.1-.5-.2-.8c-.1-.2-.4-.4-.6-.5z"/><path d="m252.4 201h5v1.1h-3.8v2.7h3.6v1.1h-3.6v2.8h3.9v1.1h-5.1z"/></g><path d="m240.5 319.8c16.8-.9 24.6-19.4 23.8-35.3-.3-6.8-1.5-16.9-3.5-32l-6.4 4.5c2 15.4 2.7 23.2 3 28 .6 11.7-4.8 26.6-17.3 27.2" fill="#a3007d"/></svg>